/* XPM */
static char *logo[] = {
/* columns rows colors chars-per-pixel */
"64 64 46 1 ",
"  c #41766993E1EB",
". c #48836EF8E2F6",
"X c #4CC6727EE39A",
"o c #51B47662E45A",
"O c #56567A4FE53A",
"+ c #5AC57D7DE5E5",
"@ c #5EDF8101E6A6",
"# c #63F48484E756",
"$ c #69EA8989E7E7",
"% c #67678888E8E8",
"& c #6CEC8BCBE8E8",
"* c #70B08ECEE969",
"= c #755092DBEA0E",
"- c #7A0C9628EAC5",
"; c #7D7D9950EBA2",
": c #83489D62EC62",
"> c #8686A0A0ECEC",
", c #8D54A593EDEE",
"< c #909AA7A7EE0A",
"1 c #9402AAC4EF0F",
"2 c #9987AEB6EFDF",
"3 c #9C66B155EFEF",
"4 c #9ECAB366F0F0",
"5 c #A280B615F126",
"6 c #A695B98DF1F7",
"7 c #AB93BD49F2A6",
"8 c #B0B0BFBFF2F2",
"9 c #AFAFC0C8F302",
"0 c #B43AC452F423",
"q c #B8B8C7C7F4E9",
"w c #BCE2CB12F56B",
"e c #C208CEFEF5F8",
"r c #C5EFD226F6EA",
"t c #CB12D610F787",
"y c #CF55D96DF7F7",
"u c #D0D0DADAF7F7",
"i c #D3F4DD50F92D",
"p c #D7D7E0E0F992",
"a c #DC61E3E0FA5F",
"s c #E0E0E7E7FAFA",
"d c #E580EAFBFBC4",
"f c #EAB7EECFFCB4",
"g c #EE16F1F1FCFC",
"h c #F373F609FDFD",
"j c #F780F982FEFE",
"k c #FFD7FFE0FFFA",
/* pixels */
"kkkkkkkkkkkkkkkkkkkkkkkkhir9421111259rijkkkkkkkkkkkkkkkkkkkkkkkk",
"kkkkkkkkkkkkkkkkkkkkkdw3,,,,,<<<<,,,,,,,4wdkkkkkkkkkkkkkkkkkkkkk",
"kkkkkkkkkkkkkkkkkkjr3,,,<<<<<<<<11<1<,,,,,>4rjkkkkkkkkkkkkkkkkkk",
"kkkkkkkkkkkkkkkkje<,,,,<<1<1112211111111<<<,,<ejkkkkkkkkkkkkkkkk",
"kkkkkkkkkkkkkkke<,,<1111122222222222112111<1<,,<rkkkkkkkkkkkkkkk",
"kkkkkkkkkkkkkg4,<<<<111222224233333333322211<<<,,5gkkkkkkkkkkkkk",
"kkkkkkkkkkkkt,,,1111222333454545555443432222211<,,,ykkkkkkkkkkkk",
"kkkkkkkkkkkw,,<<1122233455555665655655554443211<,,,,wkkkkkkkkkkk",
"kkkkkkkkkk9,,<11222335555666666667666666544443221<<<,9kkkkkkkkkk",
"kkkkkkkkk6,<<<1223455556766777777777766666554433211<,,6kkkkkkkkk",
"kkkkkkkk7,,<1222335566777888997899999878676654442221<,,7kkkkkkkk",
"kkkkkkkw,,<<22245556677778999qq8900999999776665444121<<,wkkkkkkk",
"kkkk       @22454.  %9999>     qwqq0q9999987      222<<<,ikkkkkk",
"kkkkk6   o122455,   .999qqqq.8wwqwwwqq0q099977    42121<,,gkkkkk",
"kkkkk2    <34556*    10qqwq2+wwewwwwwwww000097    44321<<,5kkkkk",
"kkkku>o   -44567oO   *qwwww-:eereerwwwwwww0009    554312<,,ikkkk",
"kkkj1,$   #55572o,   owweeeO7rrrrrrreeeewwwqq9    55432111,1jkkk",
"kkke,,:    5667;*7    6err0Xrrtrttrtrrrrewwww0    76544221<,rkkk",
"kkj<,<<.   ,677+10%   >rrr<=ttytr,@X X@,eewwwq    ,@. X@><<,1jkk",
"kkt,<<2#   *686.0q>   @rrt$5yiyqo X8t7. Owewww    .<5,X  =1<,tkk",
"kk2,<12;   o79>#qw7    ett.tiirX  1iii,  @reew    :766-   ,<,4kk",
"kd,<<121    49%,wwe+   2y6$ipp>   eipiq   5rrw    49761   #<,,dk",
"kw,<1124O   :9.9wwe:   &i;1ppa+   ippit   *tre    99764   o1,,ek",
"k4<11225=   #1@wwer7   .yoeaas    aaapi   Otrr    09966    1<,5k",
"h,,<12341   .*:wwerro   <Oasss.           Xttr    q9886    2<,,h",
"p,<<22445o    6werry-   .:ssdd+   sdsssppiiytr    00875   X21<,p",
"r,<223455$   owwerry6    qsdff,   ifdssaw +ity    60972   %1<<,r",
"9,<<23556>   =werryyy    adfffaX  3fddss- 2itt    >q99;   ,11,,q",
"4,<2224567   4werrtyi&  *dfffhhto .3isr: ;iitt    X281X  ;322<,5",
"2,<<245567@ .qwertyii3  5dfghhhjf4&o..O-qapi      1@..X@<5321<,2",
"<,<224466999qwwerryyipasddffhhhjjjjggfdssppiittrewwq997755322<,2",
"<<<222557790qqwrrryiipassffghhjkjjjhggdddapiitrrrwwq097655321<,,",
",,1123466        tti         X+;8ghhgffds        wqq0777643221,,",
"1,112345679    wrttiip    fggi5o .3hgfddaap    reeqq087664321<,1",
"2,112356679    rrttiip    fgghhf#  =ffddsap    reww0087655332<,2",
"5,112345679    errttip    dggghhp.  <ddsaai    eeww00976543211,5",
"9,112245679    werttii    ddggggf-   idsapp    rewq0887665221<,0",
"r,,12346677    werttti    dddffff7   1sappi    eeqq0886654221,,r",
"i,<11335667    werttii    addddffr   &aapiy    ewqq0876644211<,a",
"j,,11234667    wwrrttt    aaadddda   oapiiy    wwq0887665221<,,j",
"k5,<1233567    qwrrrtt    aaaaaasa    piiiy    qqq09776542211,4k",
"kw,,1233466    qwwerrt    ppaaaaai   .iiyyt    wqq9977554211<,wk",
"kf,,<123466    qwwwrrt    ippppaiy   oyyyyr    wq09976544211,,gk",
"kk4,<213446    0qwweer    tiiiiiiq   %yytrr    q099775544111,5kk",
"kkr,<112345    09wwwee    tttiiii3   >ytrre    q0976654322<,,tkk",
"kkk2,<12245    9q9qwwe    rttttty*  .qrrree    89976654322<,1kkk",
"kkkr,<11233    899qwww    rrtttr8.  :reeeew    89766544 <<,,rkkk",
"kkkj1<<1223    89999qw    rrrrrw+  &eeeewwq    77765442 1<,2jkkk",
"kkkki,,<223    679990q    wwq7>X .>wwwwwqq0    96654422 <,,ikkkk",
"kkkkk5,,<        799         .o%>qwwwwwqq               ,,5kkkkk",
"kkkkkh<,<1223445677999000qqqqwwwwqqqqqq0099976665542221<,1hkkkkk",
"kkkkkkp,,<<2234455676999900q0q0qqqq0q00999997665444211<,,akkkkkk",
"kkkkkkkw><<122334556677999990900909099999776655442211<,,wkkkkkkk",
"kkkkkkkkq,,<<223345566677799999999999997676654542221<<,qkkkkkkkk",
"kkkkkkkkk6,<<11224445566666777977777767665554442211<,,9jkkkkkkkk",
"kkkkkkkkkk0,<<<1222444556666666667666665554442222<<<,qkkkkkkkkkk",
"kkkkkkkkkkkw,,,<2222334455555555656555554433222<<,,,wkkkkkkkkkkk",
"kkkkkkkkkkkka2,,<<<21222334455555454444222222<<<,,2akkkkkkkkkkkk",
"kkkkkkkkkkkkkh6,,<<<112222333333333333222221<<<,,6hkkkkkkkkkkkkk",
"kkkkkkkkkkkkkkka2,,<<<1121122222222222112<<,,,,3akkkkkkkkkkkkkkk",
"kkkkkkkkkkkkkkkkjr1,,,<<1111111111111111<<,,,2rjkkkkkkkkkkkkkkkk",
"kkkkkkkkkkkkkkkkkkjt2,,,,<,1111111111<,,,,,4rjkkkkkkkkkkkkkkkkkk",
"kkkkkkkkkkkkkkkkkkkkkdw4,,,,,,,,,,,,,,,,4wdkkkkkkkkkkkkkkkkkkkkk",
"kkkkkkkkkkkkkkkkkkkkkkkkhir951<,,1159rihkkkkkkkkkkkkkkkkkkkkkkkk"
};
